<svg xmlns="http://www.w3.org/2000/svg" width="200" height="200" viewBox="0 0 200 200" fill="none">
<path d="M 6,194.86 H 180.19" stroke="#1E003F" stroke-width="1.5" stroke-miterlimit="10" stroke-linecap="round"/>
<path d="M 24.27,65.19 L 24.63,64.38 C 24.63,63.13 25.38,62.68 27.08,62.68 C 28.78,62.68 29.71,63.27 29.71,64.38 L 30.25,66.15 L 24.27,66.7 V 65.19 Z" fill="#F78B46" stroke="#1E003F" stroke-width="1.2" stroke-miterlimit="10"/>
<path d="M 24.51,66.92 L 29.71,66.15 L 39.61,106.04 L 40.27,122.81 H 36.71 L 29.61,95.06 L 24.51,66.92 Z" fill="#362A3A" stroke="#1E003F" stroke-width="1.2" stroke-miterlimit="10"/>
<path d="M 30.17,94.96 L 31.52,93.73 H 34.17 L 35.22,95.06 L 34.61,98.41 L 37.86,100.02 L 37.61,101.76 L 35.01,101.21 L 36.71,122.09 H 34.66 L 29.41,96.39 L 30.17,94.96 Z" fill="#F78B46" stroke="#1E003F" stroke-width="1.2" stroke-miterlimit="10"/>
<path d="M 34.81,122.81 H 76.62 L 78.02,123.62 V 129.56 L 73.72,134.13 H 37.01 L 31.31,129.16 V 123.62 L 32.31,122.81 H 34.81 Z" fill="#F78B46" stroke="#1E003F" stroke-width="1.2" stroke-miterlimit="10"/>
<path d="M 33.21,129.26 L 36.61,133.82 L 73.72,134.13 L 77.92,129.26 H 33.21 Z" fill="#75325F" stroke="#1E003F" stroke-width="1.2" stroke-miterlimit="10"/>
<path d="M 34.81,100.02 H 77.02 L 77.47,100.74 L 77.02,102.47 L 76.02,103.08 H 34.81 L 34.21,101.15 L 34.81,100.02 Z" fill="#F78B46" stroke="#1E003F" stroke-width="1.2" stroke-miterlimit="10"/>
<path d="M 68.16,102.47 H 70.61 V 122.81 H 68.16 V 102.47 Z" fill="#F78B46" stroke="#1E003F" stroke-width="1.2" stroke-miterlimit="10"/>
<path d="M 36.71,134.13 L 41.86,134.33 L 61.51,150.22 L 58.31,151.44 L 36.71,134.13 Z" fill="#964245" stroke="#1E003F" stroke-width="1.2" stroke-miterlimit="10"/>
<path d="M 50.11,135.05 L 82.07,146.22 L 56.41,177.61 L 56.66,181.06 H 81.62 L 83.97,178.02 L 74.37,162.23 L 85.52,150.01 L 84.12,147.77 L 60.91,147.57 L 50.11,135.05 Z" fill="#964245" stroke="#1E003F" stroke-width="1.2" stroke-miterlimit="10"/>
<path d="M 87.07,178.53 L 90.07,179.24 L 101.42,189.91 L 102.12,192.25 L 100.22,194 H 97.42 L 85.77,181.68 L 87.07,178.53 Z" fill="#964245" stroke="#1E003F" stroke-width="1.2" stroke-miterlimit="10"/>
<path d="M 88.32,179.14 L 116.53,179.34 L 126.58,189.71 L 126.23,193.89 H 123.83 L 115.73,181.68 L 87.42,181.06 L 88.32,179.14 Z" fill="#75325F" stroke="#1E003F" stroke-width="1.2" stroke-miterlimit="10"/>
<path d="M 122.33,139.72 L 103.12,161.11 L 100.92,158.77 L 109.72,148.08 L 107.02,147.77 L 108.92,145.43 L 121.13,132.4 L 122.33,134.13 V 139.72 Z" fill="#964245" stroke="#1E003F" stroke-width="1.2" stroke-miterlimit="10"/>
<path d="M 86.02,145.12 L 111.68,145.33 L 114.08,146.45 L 113.43,148.08 L 110.93,148.89 L 90.32,148.69 L 86.02,145.12 Z" fill="#6FBABD" stroke="#1E003F" stroke-width="1.2" stroke-miterlimit="10"/>
<path d="M 100.02,146.96 H 100.62" stroke="#1E003F" stroke-width="1.2" stroke-miterlimit="10"/>
<path d="M 71.42,194 H 74.22 L 100.17,165.08 L 97.22,161.93 L 70.01,190.42 L 69.21,192.76 L 71.42,194 Z" fill="#F78B46" stroke="#1E003F" stroke-width="1.2" stroke-miterlimit="10"/>
<path d="M 75.42,135.66 L 77.92,135.05 L 126.33,184.42 L 125.73,189.91 L 123.83,189.4 L 75.42,135.66 Z" fill="#F78B46" stroke="#1E003F" stroke-width="1.2" stroke-miterlimit="10"/>
<path d="M 36.11,126.06 H 43.51 V 131.39 H 36.71 L 36.11,126.06 Z" fill="#979CB7" stroke="#1E003F" stroke-width="1.2" stroke-miterlimit="10"/>
<path d="M 60.01,126.06 H 67.41 V 131.39 H 60.61 L 60.01,126.06 Z" fill="#979CB7" stroke="#1E003F" stroke-width="1.2" stroke-miterlimit="10"/>
<path d="M 118.18,58.11 L 115.23,61.25 L 114.18,61.35 L 109.88,64.7 L 101.92,73.26 L 94.42,69.09 L 88.02,64.12 L 80.22,54.95 L 75.82,53.62 L 77.12,46.3 C 77.12,41.13 73.62,30.25 73.62,28.93 L 72.92,22.18 L 73.92,21.06 L 72.72,15.12 L 70.01,12.68 C 66.11,8.21 61.21,5 53.11,5 C 45.01,5 37.41,10.07 37.41,14.63 C 37.41,17.07 38.06,17.88 39.91,19.31 C 38.71,22.16 38.81,25.92 39.71,28.22 C 39.11,30.66 40.41,32.9 41.81,35.14 C 39.81,39.01 39.31,42.15 39.31,44.29 C 34.01,44.29 32.71,47.84 32.71,49.77 L 33.91,52.82 C 32.11,55.05 32.11,58.11 33.91,60.34 L 34.41,62.27 L 33.21,66.65 L 34.21,73.77 L 38.01,86.09 L 39.11,94.96 L 43.91,100.53 L 52.11,101.15 L 63.11,99.92 L 75.32,100.53 L 76.02,101.96 L 73.82,105.11 L 71.11,110.08 L 70.91,117.81 L 73.62,122.81 H 77.12 L 78.12,128.24 L 81.72,130.17 L 88.02,131.29 L 93.72,132.4 L 100.72,131.29 L 112.33,128.24 L 120.13,126.61 L 124.03,122.09 L 125.73,121.48 L 126.03,120.46 L 123.83,119.03 L 126.13,117.3 L 131.03,110.18 L 145.13,126.16 L 147.93,129.72 L 150.73,130.94 L 154.73,133.62 L 153.93,135.25 L 156.73,137.89 L 168.94,149.71 L 170.74,149.61 L 189.84,128.44 L 193.74,123.67 L 192.74,121.33 C 190.74,119.09 188.44,117.97 184.74,119.6 C 181.04,122.55 174.14,125.29 168.04,125.29 L 163.14,121.33 L 161.04,122.04 L 158.04,117.27 L 154.63,113.92 L 153.13,114.73 L 131.33,90.23 C 127.63,87.08 121.63,87.38 117.43,89.11 L 107.42,93.68 L 108.12,87.74 L 121.13,75.12 L 122.93,72.18 L 122.73,70.25 L 125.03,66.49 L 124.73,63.85 L 127.23,62.22 L 133.03,60.9 C 135.73,59.98 138.24,56.43 139.24,54.29 L 147.64,50.13 C 148.79,49.21 147.99,47.48 146.44,47.89 L 143.84,49.41 L 145.74,46.16 C 145.74,44.83 143.84,44.12 142.14,46.05 L 139.34,50.82 L 138.94,46.87 C 137.84,46.05 136.14,47.68 135.73,49.11 L 134.43,52.16 L 130.23,51.03 L 132.23,46.16 C 132.23,44.22 130.43,43.11 129.43,44.83 L 122.03,53.07 L 119.63,57.44 L 118.18,58.11 Z" fill="#1E003F" stroke="#1E003F" stroke-width="1.2" stroke-miterlimit="10" stroke-linecap="round" stroke-linejoin="round"/>
<path d="M 119.73,57.8 L 122.03,52.46 C 122.63,50.83 127.13,47.68 129.43,44.12 C 130.23,43.11 132.13,44.43 131.33,46.36 L 128.83,51.34 L 133.93,51.03 L 135.13,50.12 C 136.63,49.2 137.63,50.73 137.34,52.36 L 136.74,56.73 L 141.94,46.77 C 143.14,45.04 145.34,45.75 144.74,47.18 L 141.84,52.15 L 146.64,48.4 C 148.04,47.79 149.04,49.31 147.64,50.12 L 140.24,54.69 L 137.24,59.26 C 135.74,60.99 132.13,62.01 129.03,62.22 C 126.43,62.32 124.93,63.95 124.03,65.17 L 119.13,61.1 L 119.73,57.8 Z" fill="#F49489" stroke="#1E003F" stroke-width="1.2" stroke-miterlimit="10" stroke-linecap="round" stroke-linejoin="round"/>
<path d="M 123.93,57.8 C 126.03,56.88 128.83,56.78 130.93,57.8" stroke="#1E003F" stroke-width="1.2" stroke-miterlimit="10" stroke-linecap="round" stroke-linejoin="round"/>
<path d="M 116.93,59.22 L 123.53,64.19 C 123.53,66.23 122.03,69.99 120.23,69.99 C 117.03,69.99 114.93,65.93 114.93,63.69 C 114.93,62.06 115.73,60.23 116.93,59.22 Z" fill="#673472" stroke="#1E003F" stroke-width="1.2" stroke-miterlimit="10"/>
<path d="M 114.63,62.16 C 112.83,61.15 110.83,62.77 109.72,64.5 L 103.02,73.06 L 100.32,72.55 L 97.62,71.02 L 93.62,69.09 L 87.42,64.72 L 80.12,55.05 L 76.12,54.03 L 73.62,56.88 L 70.21,58.2 L 69.01,61.05 L 65.01,59.72 L 60.11,58.2 L 56.21,57.18 L 49.21,50.33 L 38.01,44.89 C 33.91,44.89 32.71,48.45 32.71,49.77 L 34.21,53.02 C 32.31,54.85 32.11,57.69 33.91,60.23 C 35.41,56.57 37.21,54.95 40.91,55.05 C 46.01,55.15 51.71,58.4 56.01,59.83 C 58.81,60.74 61.91,59.83 63.11,58.91 L 67.41,60.74 L 70.21,58.2 L 73.92,56.47 L 76.22,54.23 L 80.02,55.96 L 86.42,62.57 L 87.72,72.95 L 92.52,71.02 L 101.72,73.97 L 109.12,64.6 C 110.02,63.28 112.12,61.25 114.63,62.16 Z" fill="#C95856" stroke="#1E003F" stroke-width="1.2" stroke-miterlimit="10"/>
<path d="M 73.12,22.79 C 75.62,27.05 78.22,35.61 77.72,43.26 C 77.32,48.9 76.02,52.66 73.52,54.9 C 72.02,56.32 70.92,57.34 68.11,57.34 L 66.41,49.2 L 69.11,23.19 L 73.12,22.79 Z" fill="#F78B46" stroke="#1E003F" stroke-width="1.2" stroke-miterlimit="10"/>
<path d="M 51.61,25.93 C 45.91,30.2 41.11,37.43 41.11,44.28 C 40.81,48.34 41.71,49.46 43.11,49.87 L 57.21,54.84 L 59.11,55.66 L 60.61,55.15 L 65.51,56.98 L 67.91,57.9 C 69.81,57.18 71.42,53.83 71.42,51.69 L 69.91,47.12 L 72.92,41.79 L 73.62,28.96 L 71.42,22.27 L 66.01,20.13 L 57.21,21.76 L 51.61,25.93 Z" fill="#F78B46" stroke="#1E003F" stroke-width="1.2" stroke-miterlimit="10"/>
<path d="M 53.01,26.44 C 51.91,34.28 52.81,42.12 55.01,47.18 L 56.21,55.35 L 43.71,49.01 C 41.71,46.36 42.01,40.83 44.41,36.16 C 46.21,32.5 48.91,28.64 53.01,26.44 Z" fill="#D34224" stroke="#1E003F" stroke-width="1.2" stroke-miterlimit="10"/>
<path d="M 53.11,26.24 C 52.61,32.18 52.61,41.03 55.01,44.18 C 57.41,47.33 60.41,48.95 63.41,49.05 L 64.71,49.66 L 65.01,51.8 L 66.61,54.03 L 67.01,59.98 C 69.41,58.65 70.61,55.81 70.61,53.07 L 68.81,48.19 C 72.32,46.36 73.72,39.41 73.72,35.25 V 28.12 C 72.22,24.57 69.81,22.13 66.01,22.13 C 61.91,22.13 57.71,23.25 53.11,26.24 Z" fill="#F49489" stroke="#1E003F" stroke-width="1.2" stroke-miterlimit="10"/>
<path d="M 54.91,26.04 C 55.11,30.71 54.41,36.76 55.41,41.13 C 57.21,45.8 60.81,47.73 64.51,48.34 L 63.91,50.17 L 64.81,52.1 L 66.51,50.07 C 67.91,48.64 66.91,47.12 65.01,46.61 C 61.51,46.01 57.61,43.67 56.01,39.2 C 54.61,35.85 54.71,30.41 54.91,26.04 Z" fill="#B74140" stroke="#1E003F" stroke-width="1.2" stroke-miterlimit="10"/>
<path d="M 69.41,28.73 C 70.71,27.82 72.02,27.72 73.42,28.73 C 73.72,29.75 72.22,30.76 71.22,30.76 H 68.91 C 68.41,30.15 68.71,29.24 69.41,28.73 Z" fill="#1E003F"/>
<path d="M 56.71,27.21 C 58.91,26.09 61.41,25.58 63.31,26.7 C 63.81,27.11 63.51,28.33 62.21,28.12 C 60.21,27.72 58.91,27.82 57.11,28.53 C 56.11,28.83 55.71,27.72 56.71,27.21 Z" fill="#1E003F"/>
<path d="M 66.71,29.44 L 68.41,33.41 C 69.11,35.04 68.71,36.26 66.71,36.77" stroke="#1E003F" stroke-width="1.2" stroke-miterlimit="10" stroke-linecap="round" stroke-linejoin="round"/>
<path d="M 60.91,30.77 C 60.91,31.46 60.36,32.03 59.66,32.03 C 58.97,32.03 58.41,31.46 58.41,30.77 C 58.41,30.07 58.97,29.51 59.66,29.51 C 60.36,29.51 60.91,30.07 60.91,30.77 Z" fill="#1E003F"/>
<path d="M 61.01,38.9 C 62.71,39.71 65.21,40.12 68.11,39.41" stroke="#1E003F" stroke-width="1.2" stroke-miterlimit="10" stroke-linecap="round" stroke-linejoin="round"/>
<path d="M 39.71,21.56 C 40.01,18.91 41.21,17.08 42.91,15.55 C 43.61,14.84 42.21,12.71 40.71,13.42 C 39.01,14.33 37.41,14.94 37.41,14.23 C 36.21,9.05 43.91,5 52.21,5 C 59.11,5 65.61,7.95 70.01,12.61 C 67.81,12.21 66.01,12.1 63.01,12.61 C 53.31,14.44 46.41,18.71 40.91,27.16 C 39.81,26.04 39.41,23.7 39.71,21.56 Z" fill="#36B2AC" stroke="#1E003F" stroke-width="1.2" stroke-miterlimit="10"/>
<path d="M 39.71,27.11 C 40.11,23.25 49.01,12.97 61.21,12.26 C 65.41,12.06 69.11,12.36 71.72,13.78 C 73.52,14.7 74.32,20.54 73.92,22.17 C 73.62,23.19 73.12,23.49 72.72,22.17 C 71.72,20.03 68.91,19.42 66.61,19.42 C 57.21,19.42 50.11,24.91 42.61,35.49 C 41.21,34.58 39.41,30.15 39.71,27.11 Z" fill="#227F8D" stroke="#1E003F" stroke-width="1.2" stroke-miterlimit="10"/>
<path d="M 43.21,26.04 L 45.61,29.8" stroke="#1E003F" stroke-width="0.7" stroke-miterlimit="10"/>
<path d="M 47.41,21.97 L 50.01,27.11" stroke="#1E003F" stroke-width="0.7" stroke-miterlimit="10"/>
<path d="M 51.61,18.61 L 54.21,24.05" stroke="#1E003F" stroke-width="0.7" stroke-miterlimit="10"/>
<path d="M 56.51,16.27 L 58.91,22.01" stroke="#1E003F" stroke-width="0.7" stroke-miterlimit="10"/>
<path d="M 61.41,14.74 L 62.91,20.59" stroke="#1E003F" stroke-width="0.7" stroke-miterlimit="10"/>
<path d="M 66.31,13.93 L 68.71,19.98" stroke="#1E003F" stroke-width="0.7" stroke-miterlimit="10"/>
<path d="M 82.32,44.69 L 89.62,42.86 C 91.12,42.55 92.22,43.87 91.42,45.4 L 95.32,66.79 L 97.22,76.26 L 94.82,78.39 L 91.12,77.99 L 82.72,47.63 C 81.32,47.02 80.72,45.29 82.32,44.69 Z" fill="#94F6EA" stroke="#1E003F" stroke-width="1.2" stroke-miterlimit="10"/>
<path d="M 83.62,46.72 L 89.02,45.4" stroke="#1E003F" stroke-width="1.2" stroke-miterlimit="10"/>
<path d="M 99.72,82.03 L 102.12,78.38 L 105.72,80.11 L 103.12,83.97 C 105.92,86.1 106.92,90.27 104.72,93.93 C 102.92,97.18 98.12,98.4 95.02,98.4 C 89.52,98.4 86.12,93.63 86.12,89.67 C 86.12,85.1 89.32,82.25 93.12,81.84 L 94.82,78.08 L 98.42,78.49 L 97.22,81.94 C 97.62,82.65 98.62,82.86 99.72,82.03 Z" fill="#94F6EA" stroke="#1E003F" stroke-width="1.2" stroke-miterlimit="10"/>
<path d="M 88.12,88.04 H 103.92 C 104.22,90.89 102.12,95.66 96.22,95.66 C 91.32,95.66 88.12,92.51 88.12,88.04 Z" fill="#F46822" stroke="#1E003F" stroke-width="1.2" stroke-miterlimit="10"/>
<path d="M 104.22,73.26 L 108.22,75.39 C 109.22,76.1 108.72,77.83 107.02,77.73 L 102.12,83.47 L 100.72,82.15 L 103.62,76.71 C 102.32,75.7 102.42,73.77 104.22,73.26 Z" fill="#FEFFFE" stroke="#1E003F" stroke-width="1.2" stroke-miterlimit="10"/>
<path d="M 72.42,80.32 L 78.72,79.5 L 85.12,72.45 C 86.62,70.92 88.22,70.31 90.32,70.31 H 93.92 C 96.12,70.31 97.62,71.94 97.62,73.67 V 74.99 C 98.42,75.7 98.62,77.33 97.62,77.73 V 78.95 C 98.12,79.76 97.62,80.68 96.62,80.47 L 94.02,79.56 H 90.02 L 86.22,84.9 C 84.42,86.52 81.02,87.34 79.12,87.23 L 76.32,89.77 L 72.42,87.23 V 80.32 Z" fill="#F49489" stroke="#1E003F" stroke-width="1.2" stroke-miterlimit="10"/>
<path d="M 90.02,73.46 L 94.82,73.77" stroke="#1E003F" stroke-width="1.2" stroke-miterlimit="10" stroke-linecap="round" stroke-linejoin="round"/>
<path d="M 89.62,76.71 L 96.02,77.53" stroke="#1E003F" stroke-width="1.2" stroke-miterlimit="10" stroke-linecap="round" stroke-linejoin="round"/>
<path d="M 72.42,80.32 L 77.42,79.5 L 79.22,88.66 L 75.72,89.77 L 72.42,87.23 V 80.32 Z" fill="#673472" stroke="#1E003F" stroke-width="1.2" stroke-miterlimit="10"/>
<path d="M 35.01,68.17 C 35.01,62.93 37.71,55.71 43.11,56.11 C 48.01,56.42 54.11,59.37 57.01,60.18 C 59.11,60.79 60.01,60.69 61.11,60.18 C 57.91,58.35 50.11,53.38 40.01,52.16 C 36.71,51.75 34.71,52.46 33.71,53.38 C 33.31,50.63 35.61,45.55 39.81,45.55 L 40.61,46.16 C 39.01,48.29 40.01,50.02 42.01,50.53 L 52.61,54.49 L 56.21,56.73 L 54.81,51.09 C 52.91,45.55 52.41,36.38 53.41,26.91 C 51.01,28.43 44.21,35.25 42.01,42.2 C 40.81,46.06 41.01,48.6 41.01,49.21 C 38.11,48.4 36.11,48.09 34.31,49.72 C 32.71,51.24 32.71,53.78 33.91,55.51 C 32.51,57.13 32.51,59.78 33.91,61.09 C 34.51,61.71 35.01,62.32 35.01,63.33 V 68.17 Z" fill="#673472" stroke="#1E003F" stroke-width="1.2" stroke-miterlimit="10"/>
<path d="M 36.81,68.07 C 36.21,63.1 38.41,56.16 42.91,56.57 C 47.61,56.98 53.91,59.72 56.01,60.54 C 58.81,61.66 60.71,60.95 61.61,60.23 C 58.21,58.61 51.11,53.73 41.01,52.1 C 37.01,51.49 35.11,52.61 33.71,53.43 C 32.71,55.36 32.81,57.69 34.31,59.32 C 33.01,60.85 32.61,62.78 33.91,64.2 C 34.61,65.01 34.91,65.62 35.01,66.64 V 69.08 L 38.91,84.17 L 41.41,93.02 C 42.91,96.88 45.71,99.42 50.91,98.91 C 57.91,98.2 67.21,95.76 70.71,94.54 C 73.22,93.73 74.92,91.6 75.42,89.46 L 73.12,87.12 L 72.62,81.08 L 54.91,83.62 L 49.41,68.07 L 53.91,82.61 C 50.91,82.61 48.11,83.42 46.11,85.45" fill="#673472"/>
<path d="M 48.61,89.87 C 50.11,86.11 53.01,82.96 57.51,82.05" stroke="#1E003F" stroke-width="1.2" stroke-miterlimit="10" stroke-linecap="round" stroke-linejoin="round"/>
<path d="M 78.92,62.88 L 80.52,63.18 L 85.02,68.16 L 86.02,73.03 L 84.02,73.64 L 78.92,65.01 V 62.88 Z" fill="#D34224"/>
<path d="M 61.11,60.64 L 65.71,71.93 V 74.88" stroke="#FEFFFE" stroke-width="1.2" stroke-miterlimit="10" stroke-linecap="round" stroke-linejoin="round"/>
<path d="M 70.01,59.12 L 74.62,70.4 L 74.82,73.65" stroke="#FEFFFE" stroke-width="1.2" stroke-miterlimit="10" stroke-linecap="round" stroke-linejoin="round"/>
<path d="M 77.62,105.93 L 89.32,100.03 L 117.63,89.16 C 122.93,87.02 128.03,88.14 131.13,91.69 L 153.63,115.59 L 146.33,124.76 L 139.24,114.22 L 135.03,110.06 L 127.63,101.4 L 125.23,102.31 L 123.13,99.47 L 121.73,101.09 L 118.73,101.09 L 87.22,118.93 C 82.72,121.47 78.02,121.17 76.02,118.93 C 73.02,116.09 72.42,110.14 77.62,105.93 Z" fill="#2BA59F" stroke="#1E003F" stroke-width="1.2" stroke-miterlimit="10"/>
<path d="M 121.73,101.09 L 123.13,107.24" stroke="#1E003F" stroke-width="1.2" stroke-miterlimit="10" stroke-linecap="round" stroke-linejoin="round"/>
<path d="M 125.23,101.4 L 124.13,107.04" stroke="#1E003F" stroke-width="1.2" stroke-miterlimit="10" stroke-linecap="round" stroke-linejoin="round"/>
<path d="M 127.63,101.6 L 124.03,107.04 C 121.93,107.24 120.43,106.53 120.13,104.29 L 119.03,101.09 L 107.02,111.47 L 92.12,121.13 C 87.02,123.88 81.32,123.67 78.02,121.54 L 74.12,117.58 L 73.02,119.91 L 73.62,122.76 L 76.92,123.16 L 77.62,128.13 L 83.02,130.07 L 92.22,131.69 L 106.02,121.84 L 118.73,110.02 C 120.73,108.19 123.03,107.78 125.93,108.09 C 131.23,108.6 136.24,110.12 138.54,114.79 L 139.64,124.16 L 144.24,127.82 L 155.24,114.28 L 152.84,113.26 L 133.13,92.4" fill="#268E81"/>
<path d="M 127.63,101.6 L 124.03,107.04 C 121.93,107.24 120.43,106.53 120.13,104.29 L 119.03,101.09 L 107.02,111.47 L 92.12,121.13 C 87.02,123.88 81.32,123.67 78.02,121.54 L 74.12,117.58 L 73.02,119.91 L 73.62,122.76 L 76.92,123.16 L 77.62,128.13 L 83.02,130.07 L 92.22,131.69 L 106.02,121.84 L 118.73,110.02 C 120.73,108.19 123.03,107.78 125.93,108.09 C 131.23,108.6 136.24,110.12 138.54,114.79 L 139.64,124.16 L 144.24,127.82 L 155.24,114.28 L 152.84,113.26 L 133.13,92.4" stroke="#1E003F" stroke-width="1.2" stroke-miterlimit="10"/>
<path d="M 147.93,127.93 L 150.93,130.37 L 158.23,123.22 L 156.43,118.15 L 148.43,127.12 L 147.93,127.93 Z" fill="#F9F0EB" stroke="#1E003F" stroke-width="1.2" stroke-miterlimit="10"/>
<path d="M 145.83,126.71 L 154.93,114.79 L 157.13,115.91 L 158.23,118.15 L 149.43,129.15 L 147.03,127.93 L 145.83,126.71 Z" fill="#61D2C1" stroke="#1E003F" stroke-width="1.2" stroke-miterlimit="10"/>
<path d="M 155.13,134.94 L 159.03,130.88 L 161.94,122.04 L 163.64,122.14 L 168.04,126.31 C 171.94,126.61 178.84,124.27 182.94,121.02 L 187.94,119.09 L 192.74,122.95 L 189.74,127.82 L 170.04,149.61 L 166.64,147.78 L 155.13,134.94 Z" fill="#FEFFFE" stroke="#1E003F" stroke-width="1.2" stroke-miterlimit="10"/>
<path d="M 156.73,137.89 L 160.43,133.11 L 163.34,131.38 L 165.84,131.69 L 168.04,126.3 C 172.14,127.01 178.14,125.18 180.44,123.96 L 184.34,131.08 L 167.44,147.77 L 156.73,137.89 Z" fill="#F46822" stroke="#1E003F" stroke-width="1.2" stroke-miterlimit="10"/>
<path d="M 161.04,140.73 C 163.84,138.29 168.74,138.6 171.74,141.04 L 170.04,149.09 L 166.64,147.26 L 161.04,140.73 Z" fill="#75325F" stroke="#1E003F" stroke-width="1.2" stroke-miterlimit="10"/>
<path d="M 172.04,130.68 L 173.34,126.41" stroke="#1E003F" stroke-width="1.2" stroke-miterlimit="10" stroke-linecap="round"/>
<path d="M 176.04,130.07 L 177.04,125.6" stroke="#1E003F" stroke-width="1.2" stroke-miterlimit="10" stroke-linecap="round"/>
<path d="M 128.13,163.86 H 137.84 V 170.01 H 128.13 V 163.86 Z" fill="#C5E8E0" stroke="#1E003F" stroke-width="1.2" stroke-miterlimit="10"/>
<path d="M 138.94,163.25 H 126.13 L 125.13,162.13 V 159.19 L 126.13,158.07 H 140.24 L 141.24,159.19 V 161.72 L 138.94,163.25 Z" fill="#48B9B0" stroke="#1E003F" stroke-width="1.2" stroke-miterlimit="10"/>
<path d="M 139.94,157.97 H 126.03 L 122.73,139.01 L 121.33,127.19 L 122.13,122.72 L 127.03,117.85 L 123.23,118.15 L 120.13,120.9 L 119.03,127.14 V 131.39 L 120.03,137.74 L 124.03,157.97 H 138.94 Z" fill="#268E81" stroke="#1E003F" stroke-width="1.2" stroke-miterlimit="10"/>
<path d="M 120.43,121.63 L 123.13,119.09 L 126.63,122.04 L 125.23,125.08 V 134.94 L 128.83,157.97 H 139.84 L 139.74,120.92 C 139.74,113.17 134.73,110.12 128.03,110.12 C 123.73,110.12 121.03,111.95 118.73,114.79 L 107.02,123.05 L 116.23,120.82 L 122.13,120.01" fill="#2BA59F"/>
<path d="M 120.43,121.63 L 123.13,119.09 L 126.63,122.04 L 125.23,125.08 V 134.94 L 128.83,157.97 H 139.84 L 139.74,120.92 C 139.74,113.17 134.73,110.12 128.03,110.12 C 123.73,110.12 121.03,111.95 118.73,114.79 L 107.02,123.05 L 116.23,120.82 L 122.13,120.01" stroke="#1E003F" stroke-width="1.2" stroke-miterlimit="10"/>
<path d="M 127.03,170.82 H 134.43 L 135.13,169.09 C 136.03,167.56 141.24,167.77 142.14,169.09 L 142.64,171.53 L 141.74,176.2 C 145.74,179.14 149.14,182.09 155.74,184.22 C 160.14,185.54 161.14,187.88 161.14,190.72 V 193.87 L 126.53,193.56 L 126.13,190.72 L 127.03,170.82 Z" fill="#F46822" stroke="#1E003F" stroke-width="1.2" stroke-miterlimit="10"/>
<path d="M 126.53,182.49 H 128.03 C 131.13,182.49 133.93,187.16 133.93,189.91 L 139.84,191.33 L 160.94,191.23 V 193.77 L 126.13,193.56 L 126.53,182.49 Z" fill="#C3B8D6" stroke="#1E003F" stroke-width="1.2" stroke-miterlimit="10"/>
<path d="M 145.74,185.95 C 147.04,183.31 150.24,182.19 152.74,182.49" stroke="#1E003F" stroke-width="1.2" stroke-miterlimit="10" stroke-linecap="round"/>
<path d="M 142.74,183.51 C 144.04,181.48 145.74,180.46 147.74,180.16" stroke="#1E003F" stroke-width="1.2" stroke-miterlimit="10" stroke-linecap="round"/>
<path d="M 139.74,181.48 C 140.94,179.85 142.74,178.73 144.74,178.53" stroke="#1E003F" stroke-width="1.2" stroke-miterlimit="10" stroke-linecap="round"/>
<path d="M 136.74,179.14 C 138.44,177.92 140.14,177.11 142.24,177.01" stroke="#1E003F" stroke-width="1.2" stroke-miterlimit="10" stroke-linecap="round"/>
<path d="M 16.91,165.89 L 19.11,162.13 L 16.91,157.26 L 17.31,156.25 L 57.71,147.08 L 59.11,147.69 L 60.31,162.74 L 54.71,194 H 13.31 L 12.91,192.78 L 16.91,165.89 Z" fill="#3A3644" stroke="#1E003F" stroke-width="1.2" stroke-miterlimit="10"/>
<path d="M 17.11,165.28 L 17.61,161.01 L 18.71,160.2 H 59.11 L 60.31,162.13 L 59.01,166.09 L 17.11,165.28 Z" fill="#3A3644" stroke="#1E003F" stroke-width="1.2" stroke-miterlimit="10"/>
<path d="M 19.61,171.63 H 54.81" stroke="#FEFFFE" stroke-width="0.7" stroke-miterlimit="10"/>
<path d="M 18.31,180.19 H 53.51" stroke="#FEFFFE" stroke-width="0.7" stroke-miterlimit="10"/>
<path d="M 16.81,186.64 H 52.01" stroke="#FEFFFE" stroke-width="0.7" stroke-miterlimit="10"/>
<path d="M 29.31,172.03 V 179.78" stroke="#FEFFFE" stroke-width="0.7" stroke-miterlimit="10"/>
<path d="M 43.41,172.03 V 179.78" stroke="#FEFFFE" stroke-width="0.7" stroke-miterlimit="10"/>
<path d="M 26.71,186.13 L 26.31,192.47" stroke="#FEFFFE" stroke-width="0.7" stroke-miterlimit="10"/>
<path d="M 41.31,186.13 L 40.91,192.47" stroke="#FEFFFE" stroke-width="0.7" stroke-miterlimit="10"/>
<path d="M 22.11,158.78 L 23.01,159.79" stroke="#FEFFFE" stroke-width="1.2" stroke-miterlimit="10"/>
<path d="M 20.51,163.15 L 21.41,163.76" stroke="#FEFFFE" stroke-width="1.2" stroke-miterlimit="10"/>
<path d="M 27.11,162.94 L 31.11,159.29 H 34.71 L 30.71,163.66" stroke="#FEFFFE" stroke-width="1.2" stroke-miterlimit="10"/>
<path d="M 35.71,162.94 L 39.71,159.29 H 43.31 L 39.31,163.66" stroke="#FEFFFE" stroke-width="1.2" stroke-miterlimit="10"/>
<path d="M 44.31,162.94 L 48.31,159.29 H 51.91 L 47.91,163.66" stroke="#FEFFFE" stroke-width="1.2" stroke-miterlimit="10"/>
<path d="M 52.91,162.94 L 56.91,159.29 H 59.21 L 55.81,163.66" stroke="#FEFFFE" stroke-width="1.2" stroke-miterlimit="10"/>
<path d="M 24.91,159.19 L 23.61,156.04 L 56.91,148.29 L 59.01,151.03 L 24.91,159.19 Z" fill="#3A3644" stroke="#1E003F" stroke-width="1.2" stroke-miterlimit="10"/>
<path d="M 28.61,154.92 L 30.51,157.16" stroke="#FEFFFE" stroke-width="1.2" stroke-miterlimit="10"/>
<path d="M 34.01,153.5 L 36.51,155.94" stroke="#FEFFFE" stroke-width="1.2" stroke-miterlimit="10"/>
<path d="M 39.41,152.07 L 42.41,154.51" stroke="#FEFFFE" stroke-width="1.2" stroke-miterlimit="10"/>
<path d="M 45.31,150.34 L 48.81,152.78" stroke="#FEFFFE" stroke-width="1.2" stroke-miterlimit="10"/>
<path d="M 51.21,149.01 L 54.71,151.05" stroke="#FEFFFE" stroke-width="1.2" stroke-miterlimit="10"/>
<path d="M 70.61,160.91 L 71.61,161.93" stroke="#1E003F" stroke-width="1.2" stroke-miterlimit="10"/>
<path d="M 100.42,161.01 L 101.42,162.03" stroke="#1E003F" stroke-width="1.2" stroke-miterlimit="10"/>
</svg>
